<svg xmlns="http://www.w3.org/2000/svg" width="480" height="488" viewBox="0 0 480 488">
  <g id="meeting" transform="translate(-4)">
    <g id="Group_1306" data-name="Group 1306">
      <path id="Path_304" data-name="Path 304" d="M44,360h88V480h48V344H308V480h48V360h88a32,32,0,0,0,32-32V208a32,32,0,0,0-32-32H404a32,32,0,0,0-32,32v64H284v40H204V272H116V208a32,32,0,0,0-32-32H44a32,32,0,0,0-32,32V328A32,32,0,0,0,44,360Z" fill="#fff"/>
      <path id="Path_305" data-name="Path 305" d="M268,176H220l24,64Z" fill="#fff"/>
    </g>
    <path id="Path_306" data-name="Path 306" d="M204,312h80V272h40V224a48,48,0,0,0-48-48h-8l-24,64-24-64h-8a48,48,0,0,0-48,48v48h40Z" fill="#fbb829"/>
    <circle id="Ellipse_79" data-name="Ellipse 79" cx="48" cy="48" r="48" transform="translate(28 80)" fill="#fff"/>
    <circle id="Ellipse_80" data-name="Ellipse 80" cx="48" cy="48" r="48" transform="translate(196 80)" fill="#fbb829"/>
    <g id="Group_1307" data-name="Group 1307">
      <circle id="Ellipse_81" data-name="Ellipse 81" cx="48" cy="48" r="48" transform="translate(364 80)" fill="#fff"/>
      <path id="Path_307" data-name="Path 307" d="M164,48h40V8H92V48h40V72Z" fill="#fff"/>
    </g>
    <g id="Group_1308" data-name="Group 1308">
      <path id="Path_308" data-name="Path 308" d="M36,367.192V488H52V368h72V480a8,8,0,0,0,8,8h48a8,8,0,0,0,8-8V352h48V472H204v16h80V472H252V352h48V480a8,8,0,0,0,8,8h48a8,8,0,0,0,8-8V368h72V488h16V367.192A40.068,40.068,0,0,0,484,328V208a39.961,39.961,0,0,0-33.592-39.352,55.978,55.978,0,1,0-68.864,6.28A39.987,39.987,0,0,0,364,208v56H332V224a56.051,56.051,0,0,0-49.36-55.568,56,56,0,1,0-77.28,0A56.051,56.051,0,0,0,156,224v40H124V208a39.987,39.987,0,0,0-17.544-33.072,56.028,56.028,0,1,0-68.864-6.28A39.961,39.961,0,0,0,4,208V328A40.075,40.075,0,0,0,36,367.192ZM300.9,336H187.1a39.947,39.947,0,0,0-7.12-16H308.016A39.948,39.948,0,0,0,300.9,336ZM372,128a40,40,0,1,1,40,40A40.045,40.045,0,0,1,372,128Zm0,152a8,8,0,0,0,8-8V208a24.029,24.029,0,0,1,24-24h40a24.029,24.029,0,0,1,24,24V328a24.029,24.029,0,0,1-24,24H356a8,8,0,0,0-8,8V472H316V344a24.029,24.029,0,0,1,24-24h72a8,8,0,0,0,8-8V232H404v72H292V280ZM256.456,184,244,217.216,231.544,184ZM204,128a40,40,0,1,1,40,40A40.045,40.045,0,0,1,204,128Zm-32,96a40.045,40.045,0,0,1,40-40h2.456l22.056,58.808a8,8,0,0,0,14.984,0L273.544,184H276a40.045,40.045,0,0,1,40,40v40H284a8,8,0,0,0-8,8v32H212V272a8,8,0,0,0-8-8H172ZM36,128a40,40,0,1,1,40,40A40.045,40.045,0,0,1,36,128ZM20,208a24.029,24.029,0,0,1,24-24H84a24.029,24.029,0,0,1,24,24v64a8,8,0,0,0,8,8h80v24H84V232H68v80a8,8,0,0,0,8,8h72a24.029,24.029,0,0,1,24,24V472H140V360a8,8,0,0,0-8-8H44a24.029,24.029,0,0,1-24-24Z" fill="#010133"/>
      <rect id="Rectangle_509" data-name="Rectangle 509" width="16" height="16" transform="translate(236 264)" fill="#010133"/>
      <path id="Path_309" data-name="Path 309" d="M128.424,79.16a8.013,8.013,0,0,0,8.376-.76L166.664,56H204a8,8,0,0,0,8-8V8a8,8,0,0,0-8-8H92a8,8,0,0,0-8,8V48a8,8,0,0,0,8,8h32V72A8.009,8.009,0,0,0,128.424,79.16ZM100,40V16h96V40H164a8,8,0,0,0-4.8,1.6L140,56V48a8,8,0,0,0-8-8Z" fill="#010133"/>
      <rect id="Rectangle_510" data-name="Rectangle 510" width="16" height="16" transform="translate(284 24)" fill="#010133"/>
      <rect id="Rectangle_511" data-name="Rectangle 511" width="16" height="16" transform="translate(316 24)" fill="#010133"/>
      <rect id="Rectangle_512" data-name="Rectangle 512" width="16" height="16" transform="translate(348 24)" fill="#010133"/>
    </g>
  </g>
</svg>
